<?xml version="1.0" standalone="no"?>
<svg xmlns:xlink="http://www.w3.org/1999/xlink" id="wave" style="transform:rotate(180deg); transition: 0.3s" viewBox="0 0 1440 490" version="1.1" xmlns="http://www.w3.org/2000/svg"><defs><linearGradient id="sw-gradient-0" x1="0" x2="0" y1="1" y2="0"><stop stop-color="rgba(132.382, 62, 243, 1)" offset="0%"/><stop stop-color="rgba(192, 132, 252, 1)" offset="100%"/></linearGradient></defs><path style="transform:translate(0, 0px); opacity:1" fill="url(#sw-gradient-0)" d="M0,343L40,285.8C80,229,160,114,240,65.3C320,16,400,33,480,57.2C560,82,640,114,720,179.7C800,245,880,343,960,383.8C1040,425,1120,408,1200,343C1280,278,1360,163,1440,98C1520,33,1600,16,1680,57.2C1760,98,1840,196,1920,253.2C2000,310,2080,327,2160,294C2240,261,2320,180,2400,147C2480,114,2560,131,2640,179.7C2720,229,2800,310,2880,359.3C2960,408,3040,425,3120,367.5C3200,310,3280,180,3360,122.5C3440,65,3520,82,3600,114.3C3680,147,3760,196,3840,236.8C3920,278,4000,310,4080,269.5C4160,229,4240,114,4320,89.8C4400,65,4480,131,4560,138.8C4640,147,4720,98,4800,138.8C4880,180,4960,310,5040,375.7C5120,441,5200,441,5280,416.5C5360,392,5440,343,5520,294C5600,245,5680,196,5720,171.5L5760,147L5760,490L5720,490C5680,490,5600,490,5520,490C5440,490,5360,490,5280,490C5200,490,5120,490,5040,490C4960,490,4880,490,4800,490C4720,490,4640,490,4560,490C4480,490,4400,490,4320,490C4240,490,4160,490,4080,490C4000,490,3920,490,3840,490C3760,490,3680,490,3600,490C3520,490,3440,490,3360,490C3280,490,3200,490,3120,490C3040,490,2960,490,2880,490C2800,490,2720,490,2640,490C2560,490,2480,490,2400,490C2320,490,2240,490,2160,490C2080,490,2000,490,1920,490C1840,490,1760,490,1680,490C1600,490,1520,490,1440,490C1360,490,1280,490,1200,490C1120,490,1040,490,960,490C880,490,800,490,720,490C640,490,560,490,480,490C400,490,320,490,240,490C160,490,80,490,40,490L0,490Z"/></svg>