<?xml version="1.0" standalone="no"?><svg xmlns="http://www.w3.org/2000/svg" viewBox="0 0 1440 320"><path fill="#C084FC" fill-opacity="1" d="M0,0L34.3,0C68.6,0,137,0,206,32C274.3,64,343,128,411,128C480,128,549,64,617,85.3C685.7,107,754,213,823,229.3C891.4,245,960,171,1029,154.7C1097.1,139,1166,181,1234,202.7C1302.9,224,1371,224,1406,224L1440,224L1440,0L1405.7,0C1371.4,0,1303,0,1234,0C1165.7,0,1097,0,1029,0C960,0,891,0,823,0C754.3,0,686,0,617,0C548.6,0,480,0,411,0C342.9,0,274,0,206,0C137.1,0,69,0,34,0L0,0Z"></path></svg>